<!--?xml version="1.0" standalone="no"?-->
<svg id="sw-js-blob-svg" viewBox="0 0 100 100" xmlns="http://www.w3.org/2000/svg" version="1.1">
    <defs>
        <linearGradient id="sw-gradient" x1="0" x2="1" y1="1" y2="0">
            <stop id="stop1" stop-color="rgba(110.897, 149.537, 219.318, 1)" offset="0%"></stop>
            <stop id="stop2" stop-color="rgba(233.868, 167.709, 244.363, 1)" offset="100%"></stop>
        </linearGradient>
    </defs>
    <g transform="translate(50 50) scale(-1, -1)">
        <path fill="url(#sw-gradient)" d="M17.8,-30.1C24,-27.2,30.6,-24.4,35.9,-19.4C41.2,-14.4,45.2,-7.2,43.5,-1C41.8,5.2,34.5,10.5,29.7,16.2C24.8,21.9,22.3,28.1,17.7,30.7C13.2,33.3,6.6,32.2,0,32.2C-6.5,32.1,-13.1,33.1,-19.7,31.7C-26.4,30.3,-33.1,26.7,-36.5,21C-39.9,15.3,-40.1,7.7,-40,0.1C-39.9,-7.5,-39.6,-15.1,-35.4,-19.5C-31.2,-23.8,-23.1,-25,-16.6,-27.7C-10.1,-30.5,-5,-34.9,0.4,-35.5C5.8,-36.1,11.5,-33.1,17.8,-30.1Z" width="100%" height="100%" stroke-width="0" style="transition: 0.3s;" stroke="url(#sw-gradient)"></path>
    </g>
</svg>
